**ABCDEFGHIJKLMNOPQRSTUVWXYZabcdefghijklmnopqrstuvwxyz**************************
**PARASOLID !"#$%&'()*+,-./:;<=>?@[\]^_`{|}~0123456789**************************
**PART1;
MC=unknown;
MC_MODEL=unknown;
MC_ID=unknown;
OS=unknown;
OS_RELEASE=unknown;
FRU=Parasolid 37.1.212;
APPL=Onshape;
SITE=unknown;
USER=unknown;
FORMAT=text;
GUISE=transmit;
KEY=BTGapi::writeModels_.xmt;
FILE=BTGapi::writeModels_.xmt;
DATE=2025-10-31T05:24:39 (UTC);
**PART2;
SCH=SCH_3701212_37102;
USFLD_SIZE=0;
**PART3;
**END_OF_HEADER*****************************************************************
T51 : TRANSMIT FILE created by modeller version 370121223 SCH_3701212_37102_1300
6239 0 12 36 CCCI7 lattice222 0 CCCI4 mesh1006 0 I8 polyline1008 0 CCCCCCCDI5 ow
ner1040 0 CCCI16 boundary_lattice222 0 CCCI13 boundary_mesh1006 0 I17 boundary_p
olyline1008 0 CCCA16 index_map_offset0 0 1 dA9 index_map82 0 A17 node_id_index_m
ap82 0 A20 schema_embedding_map82 0 A5 child12 0 A14 lowest_node_id0 0 1 dA16 me
sh_offset_data206 0 Z1 537 2 3 0 0 0 0 0 0 0 1e3 1e-8 0 4 5 1 0 1 2 6 0 7 8 9 0
 0 10 11 12 0 0 0 0 0 0 0 81 255 1 2 531 13 1 14 0 0 0 15 70 11 CI9 list_type0 0
 1 uI10 notransmit0 0 1 lCCCDCCDI12 finger_index0 0 1 dI12 finger_block1012 0 CZ
3 0 4 T1 0 0 6 20 1 16 16 13 255 6 137 0 1 0 17 0 0 18 0 50 255 7 131 0 17 19 0
 0 +-.01153807902272912 -.011222655779759 .004 -1 -231296463463574e-30 0 2312964
63463574e-30 -1 0 30 255 8 135 0 11 20 0 0 +-.01153807902272912 -.00372265577975
901 .004 0 0 -1 29 255 9 114 0 21 22 0 -.0885380790227291 -.00372265577975902 0
 19 9 CCCCCCI5 frame230 0 CA5 owner12 0 Z10 48 0 1 18 0 23 0 V0 16 255 11 119 24
 ?25 0 27 8 0 0 1 18 255 12 37 30 29 0 26 28 ?1 81 1 30 226 34 12 35 0 32 33 31
 17 255 29 0 38 40 36 12 39 37 0 41 +18 26 32 32 36 12 21 45 ?1 29 28 39 0 12 45
 22 -.0885380790227291 -.00372265577975902 .004 29 45 34 0 26 43 28 -.0115380790
2272912 -.00372265577975901 .004 29 22 115 0 42 28 9 -.01153807902272912 -.00372
265577975901 0 18 42 100 44 46 21 50 22 ?1 81 1 44 235 34 42 48 0 47 49 51 17 46
 0 55 52 53 42 54 57 0 25 +18 21 96 47 60 26 42 9 ?1 18 50 384 59 54 42 56 58 ?1
 81 1 59 385 34 50 0 0 61 62 64 17 54 0 63 65 66 50 46 57 0 53 -18 56 396 70 68
 50 67 69 ?1 29 58 471 0 50 69 75 -.01153807902272912 -.0225306582183336 0 29 69
 472 0 56 0 58 -.0885380790227291 -.0225306582183336 0 29 75 468 0 71 58 43 -.08
85380790227291 -.0225306582183336 .004 18 71 387 62 40 67 0 75 ?1 29 43 467 0 67
 75 45 -.01153807902272912 -.0225306582183336 .004 18 67 398 73 72 56 71 43 ?1 8
1 1 73 399 34 67 0 0 70 74 76 17 72 0 55 53 52 67 36 80 0 77 -15 255 55 125 0 46
 17 0 17 53 0 55 46 72 50 77 78 0 79 -17 52 0 55 72 46 26 25 11 0 39 -17 36 0 38
 29 81 26 72 80 0 52 +16 80 12 85 ?36 37 83 82 0 0 1 17 77 0 84 89 79 67 53 78 0
 81 +15 84 426 0 89 90 0 17 89 0 84 87 77 71 81 88 0 0 -17 79 0 84 77 87 50 65 8
6 0 0 +16 78 345 93 ?77 95 86 91 0 0 1 17 81 0 38 36 40 67 89 88 0 0 +15 38 6 0
 40 94 0 17 40 0 38 81 29 71 92 96 0 100 -16 88 380 61 ?81 86 0 98 0 0 1 81 1 61
 382 34 88 0 0 93 59 97 16 86 342 99 ?79 78 88 101 0 0 1 30 98 455 0 88 101 91 0
 +-.0500380790227291 -.0225306582183336 .004 1 0 0 30 101 459 0 86 0 98 0 +-.050
0380790227291 -.0225306582183336 0 1 0 0 30 91 454 0 78 98 105 0 +-.011538079022
72912 -.0225306582183336 0 0 0 1 30 105 453 0 95 91 82 0 +-.0885380790227291 -.0
225306582183336 0 0 0 1 16 95 316 103 ?100 57 78 105 0 0 1 30 82 14 0 80 105 102
 0 +-.01153807902272912 -.011222655779759 .004 -231296463463574e-30 1 0 30 102 1
9 0 37 82 104 0 +-.0500380790227291 -.003722655779759015 .004 -1 -12390881971262
9e-30 0 16 37 17 106 ?29 96 80 102 0 0 1 30 104 24 0 96 102 110 0 +-.08853807902
27291 -.01122265577975902 .004 0 1 0 16 96 22 107 ?92 27 37 104 0 0 1 30 110 111
 0 57 104 108 0 +-.01153807902272912 -.011222655779759 0 -231296463463574e-30 1
 0 16 57 84 109 ?46 112 95 110 0 0 1 30 108 110 0 112 110 115 0 +-.0500380790227
291 -.003722655779759015 0 -1 -123908819712629e-30 0 16 112 80 33 ?114 83 57 108
 0 0 1 30 115 109 0 83 108 20 0 +-.0885380790227291 -.01122265577975902 0 0 1 0
 16 83 76 111 ?113 80 112 115 0 0 1 30 20 134 0 27 115 8 0 +-.0885380790227291 -
.00372265577975902 .004 0 0 -1 16 27 118 49 ?60 11 96 20 0 0 1 81 1 49 238 34 27
 116 0 44 24 117 17 60 0 119 68 92 21 41 27 0 114 +15 119 121 0 68 118 0 17 68 0
 119 100 60 56 113 83 0 87 -17 92 0 119 60 100 12 40 96 0 0 +17 41 0 120 39 114
 12 60 27 0 92 -17 114 0 120 41 25 21 66 112 0 113 +15 120 123 0 114 121 0 17 25
 0 120 114 39 42 52 11 0 66 +17 66 0 63 54 113 42 114 112 0 0 -17 113 0 63 66 65
 21 68 83 0 0 +15 63 75 0 54 125 0 17 65 0 63 113 54 56 79 86 0 0 -14 255 125 68
 123 ?90 94 63 6 122 -0 0 90 94 23 81 1 123 536 124 125 130 0 126 128 127 14 90
 423 128 ?0 125 84 6 129 +0 0 0 125 23 14 94 1 126 ?125 118 38 6 131 +0 0 125 11
8 23 50 122 108 0 125 131 135 0 +-.0500380790227291 -.011222655779759 0 0 0 1 1
 0 0 13 23 49 0 0 0 0 0 0 10 17 14 17 126 132 ?121 0 55 6 7 -0 0 121 0 23 81 1 1
32 532 124 17 133 0 0 134 136 14 121 124 134 ?118 17 120 6 19 -0 0 118 17 23 81
 1 134 533 124 121 140 0 132 138 137 14 118 122 138 ?94 121 119 6 135 +0 0 94 12
1 23 50 19 130 0 121 135 7 0 +-.0500380790227291 -.003722655779759015 .004 12390
8819712629e-30 -1 0 1 123908819712629e-30 0 50 135 129 0 118 122 19 0 +-.0885380
790227291 -.01122265577975902 .004 -1 0 0 0 0 1 81 1 138 534 124 118 139 0 134 1
26 144 80 7 CCCCCDI12 legal_owners0 17 1 lCZ1 124 0 145 8001 0 0 0 0 3 5 0 0 0 F
FFFTFTFFFFFFFFFF2 81 1 139 527 34 118 0 138 130 133 142 81 1 126 535 124 94 143
 0 138 123 141 83 255 3 144 .615686274509804 .811764705882353 .929411764705882 8
1 1 143 525 34 94 0 126 109 130 148 83 3 141 .615686274509804 .811764705882353 .
929411764705882 80 1 34 150 146 9000 0 0 0 0 3 6 0 0 0 FFTFTFTTFFFFFFFFF1 81 1 1
09 524 34 57 0 0 111 143 149 81 1 130 526 34 125 0 123 143 139 147 82 255 3 148
 8 0 2 82 3 147 8 1 2 81 1 111 523 34 83 0 0 107 109 151 82 3 149 8 3 1 81 1 107
 522 34 96 0 0 85 111 155 82 3 151 8 2 1 81 1 85 521 34 80 0 0 153 107 152 82 3
 155 8 1 1 81 1 153 520 34 1 0 154 74 85 156 82 3 152 8 0 1 81 1 154 529 160 1 1
53 14 0 0 158 81 1 74 425 34 90 0 128 73 153 157 82 3 156 4 0 3 81 1 128 537 124
 90 74 0 123 0 159 82 3 157 7 3 2 83 3 159 .615686274509804 .811764705882353 .92
9411764705882 80 1 160 161 165 8038 0 0 0 0 0 0 0 0 0 TTTTTTTTTTTTTFTFT10 81 1 1
4 530 161 1 154 2 0 0 162 98 255 6 158 80 97 114 116 32 49 80 1 161 163 164 8017
 0 0 0 0 0 0 0 0 0 TTTTTTTTTTTTTFTFT3 84 255 6 162 Part 179 255 13 164 SDL/TYSA_
NAME79 14 165 SDL/TYSA_UNAME79 9 146 BTI/DetId81 1 133 528 34 17 0 132 139 0 167
 82 3 142 8 2 2 82 3 167 8 3 2 79 15 145 SDL/TYSA_COLOUR81 1 140 242 34 121 170
 134 24 103 169 83 3 137 .615686274509804 .811764705882353 .929411764705882 81 1
 170 211 166 121 0 140 168 0 171 81 1 24 239 34 11 172 0 49 140 174 81 1 103 318
 34 95 0 0 140 99 173 82 3 169 4 3 2 81 1 99 344 34 86 0 0 103 93 175 82 3 173 7
 2 1 81 1 93 347 34 78 0 0 99 61 176 82 3 175 7 7 1 82 3 176 7 3 1 81 1 172 198
 166 11 0 24 48 116 180 82 3 174 4 10 1 80 1 166 178 177 9000 0 0 0 0 3 5 0 0 0
 FFTFTFTTFFFFFFFFF2 81 1 48 195 166 42 0 44 179 172 185 81 1 116 199 166 27 0 49
 172 181 183 83 1 180 9 81 1 181 202 166 37 0 106 116 168 182 83 1 183 10 81 1 1
06 222 34 37 181 0 0 32 184 81 1 168 206 166 112 0 33 181 170 186 83 1 182 13 81
 1 33 230 34 112 168 0 30 47 190 83 1 186 17 81 1 47 234 34 21 179 0 33 44 187 8
2 3 190 4 5 1 81 1 179 194 166 21 0 47 188 48 189 82 3 187 4 5 0 81 1 188 191 16
6 26 0 32 35 179 191 83 1 189 5 81 1 32 225 34 26 188 0 106 30 195 81 1 35 190 1
66 12 0 30 0 188 193 83 1 191 2 83 1 193 1 82 3 195 4 1 0 82 3 184 4 2 1 83 1 18
5 6 79 13 177 BTI/importTag83 1 171 22 83 3 136 .615686274509804 .81176470588235
3 .929411764705882 50 131 3 0 94 129 122 0 +-.0500380790227291 -.011222655779759
 .004 0 0 1 1 0 0 50 129 448 0 90 0 131 0 +-.0500380790227291 -.0225306582183336
 0 0 -1 0 0 0 -1 83 3 127 .615686274509804 .811764705882353 .929411764705882 17
 39 0 120 25 41 26 29 37 0 0 -17 100 0 119 92 68 71 87 95 0 89 +17 87 0 84 79 89
 56 100 95 0 65 -82 3 117 4 9 1 82 3 97 7 6 1 81 1 70 397 34 56 0 0 62 73 192 82
 3 76 7 6 0 81 1 62 388 34 71 0 0 59 70 194 82 3 192 7 5 0 82 3 194 7 4 0 82 3 6
4 7 7 0 82 3 51 4 6 0 82 3 31 4 2 0 19 18 138 0 1 0 10 6 0 S0 74 4 CI16 index_ma
p_offset0 0 1 dCCZ20 16 6 0 0 170 133 154 14 2 128 0 0 0 0 0 0 0 0 0 0 0 0 0 0 8
0 1 13 124 199 8040 0 0 0 0 3 5 0 0 0 TTTFFFFFFFFFFFFFF2 83 3 15 .61568627450980
4 .811764705882353 .929411764705882 79 17 199 SDL/TYSA_COLOUR_21 0 
