**ABCDEFGHIJKLMNOPQRSTUVWXYZabcdefghijklmnopqrstuvwxyz**************************
**PARASOLID !"#$%&'()*+,-./:;<=>?@[\]^_`{|}~0123456789**************************
**PART1;
MC=unknown;
MC_MODEL=unknown;
MC_ID=unknown;
OS=unknown;
OS_RELEASE=unknown;
FRU=Parasolid 37.1.212;
APPL=Onshape;
SITE=unknown;
USER=unknown;
FORMAT=text;
GUISE=transmit;
KEY=BTGapi::writeModels_.xmt;
FILE=BTGapi::writeModels_.xmt;
DATE=2025-10-31T05:25:04 (UTC);
**PART2;
SCH=SCH_3701212_37102;
USFLD_SIZE=0;
**PART3;
**END_OF_HEADER*****************************************************************
T51 : TRANSMIT FILE created by modeller version 370121223 SCH_3701212_37102_1300
6239 0 12 36 CCCI7 lattice222 0 CCCI4 mesh1006 0 I8 polyline1008 0 CCCCCCCDI5 ow
ner1040 0 CCCI16 boundary_lattice222 0 CCCI13 boundary_mesh1006 0 I17 boundary_p
olyline1008 0 CCCA16 index_map_offset0 0 1 dA9 index_map82 0 A17 node_id_index_m
ap82 0 A20 schema_embedding_map82 0 A5 child12 0 A14 lowest_node_id0 0 1 dA16 me
sh_offset_data206 0 Z1 1115 2 3 0 0 0 0 0 0 0 1e3 1e-8 0 4 0 1 0 1 2 5 0 6 7 8 0
 0 9 10 11 0 0 0 0 0 0 0 81 255 1 2 1105 12 1 13 0 0 0 14 70 11 CI9 list_type0 0
 1 uI10 notransmit0 0 1 lCCCDCCDI12 finger_index0 0 1 dI12 finger_block1012 0 CZ
3 0 4 T1 0 0 7 20 1 15 15 13 255 5 137 0 1 0 16 0 0 17 0 50 255 6 132 0 16 18 0
 0 +.00467824470251797 .00148676970414859 .0062 0 1 0 0 0 1 30 255 7 560 0 10 19
 0 0 +-.072571755297482 -.0485132302958514 .00204 0 -1 -1084202172485504e-31 29
 255 8 556 0 11 20 0 -.072571755297482 -.00251323029585141 .00204 19 9 CCCCCCI5
 frame230 0 CA5 owner12 0 Z9 48 0 1 17 0 21 0 V0 16 255 10 558 22 ?23 0 24 7 0 0
 1 18 255 11 554 25 27 0 30 8 ?1 81 1 25 1088 29 11 26 0 28 34 35 17 255 27 0 32
 33 31 11 38 40 0 23 -18 30 211 36 39 11 37 20 ?1 81 1 36 1073 29 30 41 0 45 43
 42 17 39 0 44 46 50 30 48 47 0 49 +18 37 92 51 55 30 52 53 ?1 29 20 215 0 30 53
 8 -.072571755297482 -.0945132302958514 .0062 29 53 113 0 37 54 20 .081928244702
518 .00148676970414859 0 29 54 114 0 52 57 53 .081928244702518 -.098513230295851
4 0 18 52 96 60 59 37 56 54 ?1 29 57 115 0 56 58 54 -.072571755297482 -.09851323
02958514 0 18 56 100 61 62 52 64 57 ?1 29 58 116 0 64 63 57 -.072571755297482 .0
0148676970414859 0 18 64 104 65 66 56 70 58 ?1 29 63 432 0 70 68 58 -.0725717552
97482 -.0985132302958514 .00204 18 70 351 67 69 64 75 63 ?1 29 68 434 0 75 71 63
 -.072571755297482 -.0945132302958514 .00204 18 75 356 73 72 70 74 68 ?1 29 71 4
36 0 74 76 68 .081928244702518 -.0945132302958514 .0062 18 74 359 80 77 75 78 71
 ?1 29 76 437 0 78 79 71 .081928244702518 -.0945132302958514 .00204 18 78 357 81
 85 74 83 76 ?1 29 79 438 0 83 82 76 .081928244702518 -.0985132302958514 .00204
 18 83 352 84 89 78 90 79 ?1 29 82 902 0 90 87 79 -.072571755297482 .00148676970
414859 .00204 18 90 810 88 86 83 93 82 ?1 29 87 904 0 93 95 82 -.072571755297482
 -.00251323029585141 .0062 18 93 798 91 33 90 94 87 ?1 29 95 907 0 94 92 87 .081
928244702518 -.00251323029585141 .00204 18 94 805 96 38 93 100 95 ?1 29 92 908 0
 100 98 95 .081928244702518 -.00251323029585141 .0062 18 100 799 97 99 94 101 92
 ?1 29 98 910 0 101 0 92 .081928244702518 .00148676970414859 .00204 18 101 803 1
05 103 100 0 98 ?1 81 1 105 1098 29 101 102 0 97 96 104 17 103 0 106 86 38 101 1
10 107 0 108 -15 255 106 829 0 23 109 0 17 86 0 106 23 103 90 108 112 0 115 -17
 38 0 106 103 23 94 27 40 0 31 +17 110 0 114 111 113 94 103 107 0 0 +16 107 747
 116 ?110 117 0 119 0 0 1 17 108 0 118 55 120 101 86 112 0 113 +15 118 127 0 120
 16 0 17 55 0 118 121 108 37 113 125 0 123 +17 120 0 118 108 121 90 66 122 0 0 -
16 112 758 124 ?108 130 126 128 0 0 1 17 113 0 114 110 127 101 55 125 0 0 -15 11
4 245 0 113 129 0 17 127 0 114 113 59 37 131 135 0 0 -16 125 117 132 ?55 133 134
 136 0 0 1 81 1 132 1065 29 125 140 0 65 138 137 16 133 118 138 ?59 139 125 144
 0 0 1 16 134 22 145 ?77 125 47 142 0 0 1 30 136 133 0 125 143 144 0 +.081928244
702518 .00148676970414859 .0062 0 0 -1 30 143 109 0 135 141 136 0 +.081928244702
518 -.0485132302958514 0 0 -1 0 30 144 134 0 133 136 148 0 +.081928244702518 -.0
985132302958514 .0062 0 0 -1 30 148 135 0 139 144 150 0 +-.072571755297482 -.098
5132302958514 .0062 0 0 -1 16 139 119 146 ?62 122 133 148 0 0 1 30 150 136 0 122
 148 149 0 +-.072571755297482 .00148676970414859 .0062 0 0 -1 16 122 120 147 ?66
 151 139 150 0 0 1 30 149 219 0 151 150 155 0 +-.072571755297482 -.0945132302958
514 .0062 0 0 -1 16 151 217 43 ?72 153 122 149 0 0 1 30 155 222 0 153 149 19 0 +
-.072571755297482 -.0485132302958514 .00204 0 1 0 16 153 220 152 ?154 24 151 155
 0 0 1 30 19 557 0 24 155 7 0 +-.072571755297482 -.00251323029585141 .0062 0 312
750626678511e-30 -1 16 24 555 34 ?156 10 153 19 0 0 1 81 1 34 1089 29 24 160 0 2
5 22 158 17 156 0 157 115 48 11 33 24 0 0 +15 157 559 0 115 159 0 17 115 0 157 6
6 156 90 23 10 0 120 -17 48 0 157 156 161 93 39 47 0 0 -17 33 0 32 99 27 93 156
 24 0 50 -15 32 833 0 99 165 0 17 99 0 32 31 33 100 50 126 0 111 +17 50 0 44 39
 162 93 99 126 0 48 -15 44 565 0 50 163 0 17 162 0 44 50 46 100 77 134 0 0 -16 1
26 773 164 ?99 112 40 167 0 0 1 81 1 164 1093 29 126 170 0 124 169 166 16 40 779
 169 ?38 126 117 168 0 0 1 30 167 878 0 126 168 128 0 +-.078071755297482 -.00251
323029585141 .0062 1 0 0 30 168 879 0 40 171 167 0 +-.078071755297482 -.00251323
029585141 .00204 1 0 0 30 128 876 0 112 167 172 0 +-.078071755297482 .0014867697
0414859 .00204 1 0 0 30 172 425 0 130 128 174 0 +.081928244702518 -.096513230295
8514 .00204 0 1 0 16 130 341 173 ?175 176 112 172 0 0 1 30 174 424 0 176 172 180
 0 +.081928244702518 -.0945132302958514 .00412 0 0 -1 16 176 304 178 ?177 179 13
0 174 0 0 1 30 180 421 0 179 174 185 0 +-.082971755297482 -.0945132302958514 .00
62 1 0 0 16 179 321 181 ?46 183 176 180 0 0 1 30 185 420 0 183 180 182 0 +-.0829
71755297482 -.0945132302958514 .00204 1 0 0 16 183 318 184 ?85 186 179 185 0 0 1
 30 182 419 0 186 185 190 0 +-.082971755297482 -.0985132302958514 .00204 1 0 0 1
6 186 312 187 ?89 188 183 182 0 0 1 30 190 14 0 47 182 142 0 +-.072571755297482
 -.0485132302958514 .0062 0 -1 0 16 47 12 189 ?39 134 135 190 0 0 1 30 142 24 0
 134 190 191 0 +.081928244702518 -.0485132302958514 .0062 0 -1 0 30 191 112 0 18
8 142 195 0 +.00467824470251797 .00148676970414859 0 1 0 0 16 188 88 193 ?123 19
2 186 191 0 0 1 30 195 111 0 192 191 141 0 +-.072571755297482 -.0485132302958514
 0 0 -1 0 16 192 84 194 ?199 200 188 195 0 0 1 30 141 110 0 200 195 143 0 +.0046
78244702518 -.0985132302958514 0 1 0 0 16 200 80 197 ?198 135 192 141 0 0 1 81 1
 197 1058 29 200 196 0 203 194 205 17 198 0 201 204 62 52 202 200 0 131 +16 135
 76 203 ?131 47 200 143 0 0 1 81 1 203 1057 29 135 206 0 210 197 208 17 131 0 20
7 202 123 52 127 135 0 0 +15 207 75 0 123 209 0 17 202 0 207 211 131 56 198 200
 0 0 -17 123 0 207 131 211 37 121 188 0 127 +17 211 0 207 123 202 64 199 192 0 1
21 -17 121 0 118 120 55 64 123 188 0 0 -17 199 0 157 215 66 56 211 192 0 202 +17
 215 0 157 154 199 70 62 139 0 0 -17 66 0 157 199 115 64 120 122 0 211 +17 154 0
 157 161 215 75 69 153 0 0 +17 62 0 201 198 213 56 215 139 0 199 +15 201 250 0 2
13 212 0 17 213 0 201 62 204 70 89 186 0 215 -17 204 0 201 213 198 83 59 133 0 0
 -17 89 0 214 175 69 83 213 186 0 216 +15 214 382 0 89 220 0 17 175 0 214 217 89
 78 216 130 0 177 +17 69 0 214 89 217 70 154 153 0 213 -17 216 0 114 59 177 83 1
75 130 0 204 -17 59 0 114 127 216 52 204 133 0 198 +17 177 0 114 216 77 78 218 1
76 0 0 +17 77 0 114 177 111 74 162 134 0 218 +17 218 0 219 49 85 74 177 176 0 46
 -15 219 386 0 72 222 0 17 49 0 219 72 218 30 46 179 0 161 -17 85 0 219 218 72 7
8 217 183 0 175 +17 46 0 44 162 39 74 49 179 0 0 +17 72 0 219 85 49 75 161 151 0
 217 +17 217 0 214 69 175 75 85 183 0 154 -17 161 0 157 48 154 30 72 151 0 0 -14
 255 222 395 225 ?109 220 219 5 224 +0 0 109 220 21 81 1 225 1113 221 222 28 0 2
23 226 227 14 109 834 226 ?165 222 106 5 229 +0 0 165 222 21 14 220 391 223 ?222
 209 214 5 228 -0 0 222 209 21 50 224 415 0 222 229 228 0 +-.082971755297482 -.0
945132302958514 .00412 0 -1 0 0 0 -1 13 21 49 0 0 0 0 0 0 9 16 14 16 128 230 ?15
9 0 118 5 6 +0 0 159 0 21 81 1 230 1106 221 16 45 0 0 231 235 14 159 126 231 ?12
9 16 157 5 18 -0 0 129 16 21 81 1 231 1107 221 159 233 0 230 232 234 14 129 122
 232 ?212 159 114 5 240 +0 0 212 159 21 50 18 131 0 159 236 6 0 +-.0725717552974
82 -.0485132302958514 .0062 1 0 0 0 0 -1 50 236 130 0 212 240 18 0 +.00467824470
2518 -.0985132302958514 .0062 0 1 0 0 0 1 14 212 124 238 ?163 129 201 5 236 -0 0
 163 129 21 50 240 129 0 129 237 236 0 +.081928244702518 -.0485132302958514 .006
2 1 0 0 0 0 -1 50 237 108 0 209 239 240 0 +.004678244702518 -.0485132302958514 0
 0 0 1 1 0 0 14 209 68 241 ?220 163 207 5 237 -0 0 220 163 21 50 239 3 0 163 228
 237 0 +.004678244702518 -.0485132302958514 .0062 0 0 1 1 0 0 14 163 1 245 ?209
 212 44 5 239 +0 0 209 212 21 50 228 414 0 220 224 239 0 +-.082971755297482 -.09
65132302958514 .00204 0 0 -1 -1 0 0 81 1 245 1110 221 163 242 0 238 241 243 80 7
 CCCCCDI12 legal_owners0 17 1 lCZ1 221 0 244 8001 0 0 0 0 3 5 0 0 0 FFFFTFTFFFFF
FFFFF2 81 1 242 1053 29 163 246 245 250 189 248 81 1 238 1109 221 212 247 0 232
 245 249 81 1 241 1111 221 209 210 0 245 223 254 83 255 3 243 .615686274509804 .
811764705882353 .929411764705882 81 1 210 1056 29 209 255 241 145 203 252 81 1 2
23 1112 221 220 253 0 241 225 251 83 3 254 .615686274509804 .811764705882353 .92
9411764705882 81 1 253 1086 29 220 258 223 80 28 260 83 3 251 .615686274509804 .
811764705882353 .929411764705882 80 1 29 256 259 9000 0 0 0 0 3 6 0 0 0 FFTFTFTT
FFFFFFFFF1 81 1 258 1045 257 220 0 253 255 261 265 81 1 80 1085 29 74 263 0 81 2
53 262 81 1 28 1087 29 222 261 225 253 25 264 82 255 3 260 4 6 2 81 1 261 1046 2
57 222 0 28 258 266 270 82 3 264 4 7 2 80 1 257 268 267 9000 0 0 0 0 3 5 0 0 0 F
FTFTFTTFFFFFFFFF2 81 1 266 1047 257 109 0 269 261 271 275 83 1 270 47 81 1 269 1
101 29 109 266 226 88 272 273 81 1 271 1048 257 165 0 272 266 274 277 83 1 275 4
8 14 165 846 280 ?0 109 32 5 279 -0 0 0 109 21 81 1 272 1102 29 165 271 280 269
 0 276 81 1 274 1049 257 1 0 278 271 0 281 83 1 277 49 81 1 278 1050 282 1 274 2
50 0 0 284 83 1 281 -.5 80 1 282 257 283 9000 0 0 0 0 3 5 0 0 0 FFTFTFTTFFFFFFFF
F2 81 1 250 1052 29 1 278 285 0 242 286 83 1 284 49 81 1 285 1103 290 1 250 13 0
 0 288 82 3 286 4 0 3 80 1 290 287 289 8038 0 0 0 0 0 0 0 0 0 TTTTTTTTTTTTTFTFT1
0 81 1 13 1104 287 1 285 2 0 0 295 98 255 6 288 80 97 114 116 32 49 80 1 287 291
 293 8017 0 0 0 0 0 0 0 0 0 TTTTTTTTTTTTTFTFT3 84 255 6 295 Part 179 255 13 293
 SDL/TYSA_NAME79 14 289 SDL/TYSA_UNAME79 18 283 BTI/importMaxCount81 1 280 1115
 221 165 272 0 226 0 292 82 3 276 4 9 2 81 1 226 1114 221 109 269 0 225 280 294
 83 3 292 .615686274509804 .811764705882353 .929411764705882 83 3 294 .615686274
509804 .811764705882353 .929411764705882 50 279 865 0 165 0 229 0 +-.07807175529
7482 -.00251323029585141 .00412 0 -1 -312750626678511e-30 0 312750626678511e-30
 -1 50 229 862 0 109 279 224 0 +-.078071755297482 -.000513230295851409 .00204 0
 -1084202172485502e-31 1 0 -1 -1084202172485502e-31 81 1 88 1100 29 90 296 0 96
 269 300 82 3 273 4 8 2 81 1 296 1010 257 90 0 88 297 298 299 81 1 96 1099 29 94
 301 0 105 88 305 82 3 300 4 15 0 81 1 301 1012 257 94 0 96 298 303 302 82 3 305
 4 14 0 81 1 298 1011 257 93 0 91 296 301 304 81 1 303 1013 257 100 0 97 301 102
 309 83 1 302 13 81 1 97 1097 29 100 303 0 91 105 310 81 1 102 1014 257 101 0 10
5 303 307 308 83 1 309 14 81 1 307 1015 257 10 0 22 102 160 306 83 1 308 15 81 1
 22 1090 29 10 307 0 34 116 313 81 1 160 1016 257 24 0 34 307 315 311 83 1 306 1
6 81 1 315 1017 257 153 0 152 160 314 312 83 1 311 17 81 1 152 1075 29 153 315 0
 43 178 316 81 1 314 1018 257 151 0 43 315 320 318 83 1 312 18 81 1 43 1074 29 1
51 314 0 36 152 317 81 1 320 1019 257 122 0 147 314 319 321 83 1 318 19 81 1 147
 1068 29 122 320 0 146 325 323 81 1 319 1020 257 139 0 146 320 322 324 83 1 321
 20 81 1 146 1067 29 139 319 0 138 147 326 81 1 322 1021 257 133 0 138 319 140 3
30 83 1 324 21 81 1 138 1066 29 133 322 0 132 146 327 81 1 140 1022 257 125 0 13
2 322 328 329 83 1 330 22 81 1 328 1023 257 134 0 145 140 332 335 83 1 329 23 81
 1 145 1055 29 134 328 0 189 210 334 81 1 332 1024 257 47 0 189 328 206 331 83 1
 335 24 81 1 189 1054 29 47 332 0 242 145 333 81 1 206 1025 257 135 0 203 332 19
6 336 83 1 331 25 81 1 196 1026 257 200 0 197 206 337 339 83 1 336 26 81 1 337 1
027 257 192 0 194 196 338 340 83 1 339 27 81 1 194 1059 29 192 337 0 197 193 341
 81 1 338 1028 257 188 0 193 337 345 343 83 1 340 28 81 1 193 1060 29 188 338 0
 194 51 342 81 1 345 1029 257 186 0 187 338 344 350 83 1 343 29 81 1 187 1077 29
 186 345 0 178 184 346 81 1 344 1030 257 183 0 184 345 348 347 83 1 350 30 81 1
 184 1078 29 183 344 0 187 181 349 81 1 348 1031 257 179 0 181 344 351 355 83 1
 347 31 81 1 181 1079 29 179 348 0 184 173 352 81 1 351 1032 257 176 0 178 348 3
53 354 83 1 355 32 81 1 178 1076 29 176 351 0 152 187 356 81 1 353 1033 257 130
 0 173 351 360 358 83 1 354 33 81 1 173 1080 29 130 353 0 181 67 357 81 1 360 10
34 257 112 0 124 353 170 359 83 1 358 34 81 1 124 1092 29 112 360 0 116 164 364
 81 1 170 1035 257 126 0 164 360 365 362 83 1 359 35 81 1 365 1036 257 40 0 169
 170 363 361 83 1 362 36 81 1 169 1094 29 40 365 0 164 368 370 81 1 363 1037 257
 117 0 368 365 366 369 83 1 361 37 16 117 793 368 ?31 40 107 171 0 0 1 81 1 368
 1095 29 117 363 0 169 91 367 81 1 366 1038 257 107 0 116 363 371 375 83 1 369 3
8 81 1 116 1091 29 107 366 0 22 124 373 81 1 371 1039 257 16 0 45 366 372 374 83
 1 375 39 81 1 45 1072 29 16 371 230 233 36 376 81 1 372 1040 257 159 0 233 371
 380 378 83 1 374 40 81 1 233 1071 29 159 372 231 247 45 377 81 1 380 1041 257 1
29 0 325 372 379 381 83 1 378 41 81 1 325 1069 29 129 380 232 147 247 385 81 1 3
79 1042 257 212 0 247 380 246 382 83 1 381 42 81 1 247 1070 29 212 379 238 325 2
33 383 81 1 246 1043 257 163 0 242 379 255 384 83 1 382 43 81 1 255 1044 257 209
 0 210 246 258 387 83 1 384 44 83 1 387 45 82 3 383 4 3 2 81 1 232 1108 221 129
 325 0 231 238 390 82 3 385 4 2 2 83 3 390 .615686274509804 .811764705882353 .92
9411764705882 82 3 377 4 4 2 82 3 376 4 5 2 82 3 373 4 19 1 81 1 91 1096 29 93 2
98 0 368 97 389 82 3 367 4 23 1 82 3 389 4 11 0 17 31 0 32 27 99 94 111 117 0 11
0 +30 171 880 0 117 119 168 0 +.081928244702518 -.00251323029585141 .00412 0 312
750626678511e-30 -1 30 119 882 0 107 0 171 0 +.081928244702518 -.000513230295851
409 .00204 0 -1 -1084202172485502e-31 17 111 0 114 77 110 100 31 117 0 162 -82 3
 370 4 22 1 82 3 364 4 20 1 81 1 67 1081 29 70 386 0 173 84 388 82 3 357 4 16 1
 81 1 386 1005 257 70 0 67 391 392 394 81 1 84 1082 29 83 297 0 67 73 393 82 3 3
88 4 5 0 81 1 297 1009 257 83 0 84 395 296 396 81 1 73 1083 29 75 392 0 84 81 40
0 82 3 393 4 6 0 81 1 392 1006 257 75 0 73 386 263 398 81 1 81 1084 29 78 395 0
 73 80 397 82 3 400 4 7 0 81 1 395 1008 257 78 0 81 263 297 399 82 3 397 4 8 0 8
1 1 263 1007 257 74 0 80 392 395 405 83 1 399 9 83 1 405 8 83 1 398 7 83 1 396 1
0 81 1 391 1004 257 64 0 65 401 386 403 83 1 394 6 81 1 65 1064 29 64 391 0 61 1
32 402 81 1 401 1003 257 56 0 61 404 391 406 83 1 403 5 81 1 61 1063 29 56 401 0
 60 65 410 81 1 404 1002 257 52 0 60 407 401 408 83 1 406 4 81 1 60 1062 29 52 4
04 0 51 61 409 81 1 407 1001 257 37 0 51 41 404 411 83 1 408 3 81 1 51 1061 29 3
7 407 0 193 60 415 81 1 41 1000 257 30 0 36 26 407 413 83 1 411 2 81 1 26 999 25
7 11 0 25 0 41 412 83 1 413 1 83 1 412 0 82 3 415 4 0 0 82 3 409 4 1 0 82 3 410
 4 2 0 82 3 402 4 3 0 82 3 356 4 12 1 82 3 352 4 15 1 82 3 349 4 14 1 82 3 346 4
 13 1 82 3 342 4 5 1 82 3 341 4 4 1 82 3 333 4 0 1 82 3 334 4 1 1 82 3 327 4 7 1
 82 3 326 4 8 1 82 3 323 4 9 1 82 3 317 4 10 1 82 3 316 4 11 1 82 3 313 4 18 1 8
2 3 310 4 12 0 83 1 304 12 83 1 299 11 79 13 267 BTI/importTag82 3 262 4 9 0 83
 1 265 46 79 9 259 BTI/DetId82 3 252 4 1 2 83 3 249 .615686274509804 .8117647058
82353 .929411764705882 82 3 248 4 0 2 79 15 244 SDL/TYSA_COLOUR83 3 234 .6156862
74509804 .811764705882353 .929411764705882 83 3 235 .615686274509804 .8117647058
82353 .929411764705882 83 3 227 .615686274509804 .811764705882353 .9294117647058
82 82 3 208 4 2 1 82 3 205 4 3 1 82 3 166 4 21 1 17 23 0 106 38 86 11 115 10 0 1
56 +82 3 158 4 17 1 82 3 137 4 6 1 82 3 104 4 13 0 82 3 42 4 4 0 82 3 35 4 10 0
 19 17 138 0 1 0 9 5 0 S0 74 4 CI16 index_map_offset0 0 1 dCCZ20 15 7 0 0 274 27
8 272 285 13 2 280 0 0 0 0 0 0 0 0 0 0 0 0 0 80 1 12 221 414 8040 0 0 0 0 3 5 0
 0 0 TTTFFFFFFFFFFFFFF2 83 3 14 .615686274509804 .811764705882353 .9294117647058
82 79 17 414 SDL/TYSA_COLOUR_21 0 
